<svg id="Camada_1" data-name="Camada 1" xmlns="http://www.w3.org/2000/svg" viewBox="0 0 40.57 47.35"><defs><style>.cls-1{fill:#00f7ef;}.cls-1,.cls-2,.cls-3{fill-rule:evenodd;}.cls-3{fill:#ff004f;}</style></defs><path class="cls-1" d="M9.4,43.14C-.38,34.65,6,15.75,21,18.13v1.75C8.29,19.29,2.69,34.44,9.4,43.14ZM36.84,10.35a11.27,11.27,0,0,0,6.61,2.32v1.72A10,10,0,0,1,36.84,10.35Zm-4.08-9a12.48,12.48,0,0,0,.18,1.93H27V33.11a14.19,14.19,0,0,1-.43,3.68c-2.44,5.38-9.35,4.68-11.26,1a6.53,6.53,0,0,0,9.44-2.91,14.72,14.72,0,0,0,.42-3.68V1.33Z" transform="translate(-4.72 -1.33)"/><path class="cls-2" d="M34.59,3.26v0c0,.69.2,10.68,10.69,11.31v7.72c-.78.05-6.9-.4-10.71-3.79v15c.1,6.81-3.69,13.49-10.79,14.83A15.28,15.28,0,0,1,17,48.16C-.32,43,5.44,17.32,22.81,20.06c0,8.29,0,0,0,8.29-7.18-1.05-9.58,4.92-7.67,9.19,1.73,3.9,8.88,4.74,11.37-.75A14.19,14.19,0,0,0,27,33.11V3.26Z" transform="translate(-4.72 -1.33)"/><path class="cls-3" d="M21,19.88c.59,0,1.2.09,1.82.18,0,8.29,0,0,0,8.29-7.18-1.05-9.58,4.92-7.67,9.19a1.63,1.63,0,0,0,.11.23,4.88,4.88,0,0,1-1.94-2.16c-1.91-4.28.49-10.25,7.67-9.19Zm22.46-5.49a16.38,16.38,0,0,0,1.83.22v7.72c-.78.05-6.9-.4-10.71-3.79v15c.1,6.81-3.69,13.49-10.79,14.83A15.28,15.28,0,0,1,17,48.16a14.61,14.61,0,0,1-7.59-5,15.59,15.59,0,0,0,5.77,3.09,15.43,15.43,0,0,0,6.78.24c7.09-1.35,10.88-8,10.79-14.83v-15c3.8,3.39,9.92,3.84,10.71,3.79C43.46,13.22,43.45,20.73,43.45,14.39ZM34.59,3.26v0a13.13,13.13,0,0,0,2.25,7.05,11.48,11.48,0,0,1-3.9-7.09Z" transform="translate(-4.72 -1.33)"/></svg>